<svg width="14" height="14" viewBox="0 0 14 14" fill="none" xmlns="http://www.w3.org/2000/svg">
<g id="Calling">
<path id="Stroke 1" fill-rule="evenodd" clip-rule="evenodd" d="M0.993317 2.24909C1.2042 1.89924 2.36681 0.629259 3.19529 0.667598C3.44314 0.688821 3.66225 0.83807 3.84027 1.01197H3.84095C4.24903 1.41179 5.41985 2.92071 5.48558 3.23838C5.64785 4.01749 4.71873 4.4666 5.00287 5.25187C5.72728 7.02438 6.97547 8.27245 8.74882 8.99611C9.53348 9.28091 9.98264 8.35256 10.7618 8.51413C11.0795 8.58054 12.5893 9.75057 12.9884 10.1593V10.1593C13.1617 10.3366 13.3123 10.5564 13.3328 10.8042C13.3636 11.6771 12.0148 12.8554 11.7519 13.006C11.1315 13.4503 10.3222 13.4421 9.3356 12.9834C6.58246 11.838 2.18263 7.52142 1.01591 4.66446C0.569493 3.68339 0.539367 2.86868 0.993317 2.24909Z" stroke="white" stroke-linecap="round" stroke-linejoin="round"/>
<path id="Path" d="M8.71027 0.833496C11.1783 1.1075 13.1269 3.05416 13.4043 5.5215" stroke="white" stroke-linecap="round" stroke-linejoin="round"/>
<path id="Path_2" d="M8.71027 3.19531C9.89027 3.42531 10.8123 4.34731 11.0423 5.52731" stroke="white" stroke-linecap="round" stroke-linejoin="round"/>
</g>
</svg>
