<svg width="19" height="19" viewBox="0 0 19 19" fill="none" xmlns="http://www.w3.org/2000/svg">
<g id="shopping-bag" clip-path="url(#clip0_1_1810)">
<g id="Group">
<g id="Group_2">
<path id="Vector" d="M18.1245 18.5268L16.7049 5.30012C16.6812 5.08717 16.4919 4.92154 16.279 4.92154H13.6526V4.11706C13.6526 1.84558 11.807 0 9.5355 0C7.26402 0 5.41844 1.84558 5.41844 4.11706V4.92154H2.72106C2.50811 4.92154 2.31882 5.08717 2.29515 5.30012L0.875479 18.5268C0.851817 18.6451 0.89914 18.7634 0.970124 18.858C1.04111 18.9527 1.15941 19 1.27772 19H17.7223C17.8406 19 17.9589 18.9527 18.0299 18.858C18.1009 18.7634 18.1482 18.6451 18.1245 18.5268ZM13.2267 7.31133C13.4396 7.31133 13.6052 7.47696 13.6052 7.68991C13.6052 7.90286 13.4396 8.06849 13.2267 8.06849C13.0137 8.06849 12.8481 7.90286 12.8481 7.68991C12.8481 7.47696 13.0137 7.31133 13.2267 7.31133ZM6.27025 4.11706C6.27025 2.3188 7.73725 0.851806 9.5355 0.851806C11.3338 0.851806 12.8008 2.3188 12.8008 4.11706V4.92154H6.27025V4.11706ZM5.84435 7.31133C6.0573 7.31133 6.22293 7.47696 6.22293 7.68991C6.22293 7.90286 6.0573 8.06849 5.84435 8.06849C5.63139 8.06849 5.46576 7.90286 5.46576 7.68991C5.46576 7.47696 5.63139 7.31133 5.84435 7.31133ZM1.77461 18.1245L3.09964 5.74969H5.41844V6.53051C4.94522 6.69614 4.61396 7.1457 4.61396 7.66625C4.61396 8.32877 5.15817 8.87298 5.82068 8.87298C6.4832 8.87298 7.02741 8.32877 7.02741 7.66625C7.02741 7.1457 6.69615 6.69614 6.22293 6.53051V5.74969H12.7534V6.53051C12.2802 6.69614 11.949 7.1457 11.949 7.66625C11.949 8.32877 12.4932 8.87298 13.1557 8.87298C13.8182 8.87298 14.3624 8.32877 14.3624 7.66625C14.3624 7.1457 14.0311 6.69614 13.5579 6.53051V5.74969H15.9714L17.2964 18.1245H1.77461Z" fill="white"/>
</g>
</g>
</g>
<defs>
<clipPath id="clip0_1_1810">
<rect width="19" height="19" fill="white"/>
</clipPath>
</defs>
</svg>
